<svg xmlns="http://www.w3.org/2000/svg" viewBox="0 0 1280 800" role="img" aria-labelledby="t d">
<title id="t">Operations SOP system</title><desc id="d">Abstract timeline showing responsibilities, service stages, checks and exception handling.</desc>
<rect width="1280" height="800" fill="#111317"/>
<g font-family="Inter,Arial,sans-serif">
<text x="88" y="92" fill="#fff" font-size="24" letter-spacing="5">OPERATIONS CONTROL BOARD</text>
<text x="88" y="132" fill="#8e97a6" font-size="20">Roles · timing · quality checks · exception triggers</text>
<g transform="translate(88 190)">
<path d="M75 0V500" stroke="#343944" stroke-width="2"/>
<g fill="#8e97a6" font-size="18"><text x="0" y="12">15:00</text><text x="0" y="112">17:00</text><text x="0" y="212">19:00</text><text x="0" y="312">21:00</text><text x="0" y="412">22:45</text></g>
<g stroke="#292e37"><path d="M75 0H1100M75 100H1100M75 200H1100M75 300H1100M75 400H1100M75 500H1100"/></g>
<g>
<rect x="115" y="22" width="250" height="58" rx="15" fill="#eef1ff"/><text x="138" y="57" fill="#2438a7" font-size="20">Prep & opening checks</text>
<rect x="390" y="22" width="180" height="58" rx="15" fill="#232832"/><text x="414" y="57" fill="#fff" font-size="20">Role handoff</text>
<rect x="115" y="122" width="330" height="58" rx="15" fill="#5f76ff"/><text x="140" y="157" fill="#fff" font-size="20">Service rhythm & queue control</text>
<rect x="470" y="122" width="230" height="58" rx="15" fill="#232832"/><text x="495" y="157" fill="#fff" font-size="20">Temperature log</text>
<rect x="115" y="222" width="420" height="58" rx="15" fill="#232832"/><text x="140" y="257" fill="#fff" font-size="20">Inventory checks & replenishment</text>
<rect x="560" y="222" width="260" height="58" rx="15" fill="#eef1ff"/><text x="585" y="257" fill="#2438a7" font-size="20">Peak-load response</text>
<rect x="115" y="322" width="260" height="58" rx="15" fill="#232832"/><text x="140" y="357" fill="#fff" font-size="20">Last seating control</text>
<rect x="400" y="322" width="330" height="58" rx="15" fill="#232832"/><text x="425" y="357" fill="#fff" font-size="20">Waste & closing decisions</text>
<rect x="115" y="422" width="360" height="58" rx="15" fill="#eef1ff"/><text x="140" y="457" fill="#2438a7" font-size="20">Closeout, records & next-day handoff</text>
</g>
<g transform="translate(875 20)">
<rect width="225" height="458" rx="22" fill="#1a1e25" stroke="#353b46"/>
<text x="28" y="46" fill="#fff" font-size="18" letter-spacing="3">LIVE SIGNALS</text>
<g transform="translate(28 82)"><text fill="#8e97a6" font-size="16">QUEUE</text><text y="34" fill="#fff" font-size="34">12 min</text><rect y="56" width="160" height="8" rx="4" fill="#303641"/><rect y="56" width="92" height="8" rx="4" fill="#5f76ff"/></g>
<g transform="translate(28 180)"><text fill="#8e97a6" font-size="16">READINESS</text><text y="34" fill="#fff" font-size="34">86%</text><rect y="56" width="160" height="8" rx="4" fill="#303641"/><rect y="56" width="137" height="8" rx="4" fill="#f1f3f8"/></g>
<g transform="translate(28 278)"><text fill="#8e97a6" font-size="16">EXCEPTIONS</text><text y="34" fill="#fff" font-size="34">02</text><circle cy="68" cx="8" r="8" fill="#ffb84d"/><text x="26" y="74" fill="#c7cdd8" font-size="16">Review required</text></g>
</g>
</g>
</g>
</svg>
